<?xml version="1.0" encoding="UTF-8"?>
<!DOCTYPE svg PUBLIC "-//W3C//DTD SVG 1.1//EN" "http://www.w3.org/Graphics/SVG/1.1/DTD/svg11.dtd">
<svg version="1.2" xmlns="http://www.w3.org/2000/svg" xmlns:xlink="http://www.w3.org/1999/xlink" x="0" y="0" width="351" height="399" viewBox="0 0 351 399">
<style type="text/css"><![CDATA[
text { font:12px Dialog; }
]]></style>
<rect x="-1089" y="-1028" width="2630" height="2738" style="fill:transparent;stroke:none" />
<clipPath id="clip1"><path d="M15,14 L224,14 L224,103 L15,103 L15,14 Z" /></clipPath>
<path d="M219.9999847,57.9999962 C219.9999847,35.3563156 174.7807465,16.9999924 118.9999542,17 C63.2191887,17.0000076 17.9999619,35.3563423 18,58.0000114 C18.0000153,80.6436844 63.2192726,99.0000076 119.0001297,98.9999924 C174.7808838,98.9999542 220.0000458,80.6436157 219.9999847,57.9999504 Z" style="fill:rgb(22,115,127);stroke:none" clip-path="url(#clip1)" />
<clipPath id="clip2"><path d="M15,14 L224,14 L224,103 L15,103 L15,14 Z" /></clipPath>
<path d="M219.9999847,57.9999962 C219.9999847,35.3563156 174.7807465,16.9999924 118.9999542,17 C63.2191887,17.0000076 17.9999619,35.3563423 18,58.0000114 C18.0000153,80.6436844 63.2192726,99.0000076 119.0001297,98.9999924 C174.7808838,98.9999542 220.0000458,80.6436157 219.9999847,57.9999504 Z" style="fill:none;stroke:rgb(16,85,95);stroke-width:3" clip-path="url(#clip2)" />
<clipPath id="clip3"><path d="M53,41 L186,41 L186,76 L53,76 L53,41 Z" /></clipPath>
<path d="M66.2675858,60.703125 C66.2675858,61.3754883 66.1489334,61.9812012 65.9101639,62.5202637 C65.6721268,63.0593262 65.3344803,63.5244141 64.896492,63.9147949 C64.4592361,64.3059082 63.9318924,64.6179199 63.3144608,64.8522949 C62.6977615,65.0866699 62.0136795,65.2353516 61.2636795,65.296875 L61.0175858,67.8046875 C61.0102615,67.8676758 60.9926834,67.921875 60.9648514,67.96875 C60.9377518,68.015625 60.8872147,68.0551758 60.8125076,68.0859375 C60.738533,68.1174316 60.6367264,68.1430664 60.5078201,68.1621094 C60.3789139,68.1818848 60.2170486,68.1914063 60.021492,68.1914063 C59.7717361,68.1914063 59.5703201,68.1796875 59.4179764,68.15625 C59.2656326,68.1328125 59.1469803,68.0998535 59.0605545,68.0566406 C58.9748611,68.0141602 58.9184647,67.9570313 58.8906326,67.8867188 C58.863533,67.8164063 58.8576736,67.7387695 58.8730545,67.6523438 L59.1191483,65.2734375 C58.783699,65.2272949 58.4672928,65.1672363 58.1699295,65.0925293 C57.8732986,65.0185547 57.6037674,64.9365234 57.3613358,64.8464355 C57.1196365,64.7570801 56.9101639,64.6647949 56.7343826,64.5710449 C56.5586014,64.4772949 56.426033,64.3857422 56.3359451,64.2956543 C56.2465897,64.2062988 56.1821365,64.072998 56.1425858,63.8972168 C56.1037674,63.7214355 56.083992,63.4614258 56.083992,63.1171875 C56.083992,62.8520508 56.0920486,62.6337891 56.1074295,62.4616699 C56.1235428,62.2902832 56.1506424,62.1569824 56.1894608,62.0632324 C56.2290115,61.9694824 56.2773514,61.9050293 56.3359451,61.869873 C56.3945389,61.8347168 56.4633865,61.8171387 56.5410233,61.8164063 C56.6428299,61.8171387 56.7915115,61.8757324 56.9863358,61.9929199 C57.1818924,62.1101074 57.4316483,62.2390137 57.7363358,62.3796387 C58.0410233,62.5202637 58.4101639,62.6491699 58.8437576,62.7663574 C59.2773514,62.8835449 59.787117,62.9421387 60.3730545,62.9414063 C61.287117,62.9421387 61.9668045,62.7722168 62.412117,62.432373 C62.8574295,62.0925293 63.0800858,61.6413574 63.0800858,61.078125 C63.0800858,60.7038574 62.9848709,60.3955078 62.7929764,60.1530762 C62.6018143,59.911377 62.346199,59.6982422 62.0253983,59.5144043 C61.7053299,59.3312988 61.3442459,59.1672363 60.9414139,59.0222168 C60.5393143,58.8779297 60.1269608,58.7233887 59.7050858,58.5593262 C59.2832108,58.3952637 58.8715897,58.2041016 58.4687576,57.9851074 C58.066658,57.7668457 57.705574,57.4973145 57.3847733,57.1765137 C57.0647049,56.8564453 56.8090897,56.4675293 56.6171951,56.010498 C56.426033,55.5534668 56.3300858,55.0004883 56.3300858,54.3515625 C56.3300858,53.7663574 56.4282303,53.2331543 56.6230545,52.7526855 C56.8186111,52.2722168 57.0998611,51.8525391 57.4668045,51.4929199 C57.8344803,51.1340332 58.2856522,50.8425293 58.8203201,50.619873 C59.3557205,50.3972168 59.9628983,50.2470703 60.6425858,50.1679688 L60.8769608,47.8125 C60.8850174,47.7509766 60.9025955,47.6982422 60.9296951,47.6550293 C60.9575272,47.6125488 61.0080643,47.572998 61.0820389,47.5378418 C61.1567459,47.5026855 61.2563553,47.4777832 61.380867,47.4616699 C61.5061111,47.4462891 61.6701736,47.4382324 61.8730545,47.4375 C62.1154861,47.4382324 62.3169022,47.4499512 62.4765701,47.4733887 C62.6369705,47.4968262 62.7600174,47.5305176 62.8457108,47.572998 C62.9321365,47.6162109 62.9863358,47.6726074 63.0097733,47.7429199 C63.0332108,47.8132324 63.0449295,47.8916016 63.0449295,47.9765625 L62.8105545,50.1914063 C63.0295486,50.2236328 63.2602615,50.2668457 63.5019608,50.3210449 C63.7443924,50.3759766 63.9707108,50.4404297 64.1816483,50.5144043 C64.3925858,50.5891113 64.5844803,50.666748 64.755867,50.7487793 C64.9279861,50.8308105 65.0473709,50.9055176 65.1132889,50.9714355 C65.1799393,51.0380859 65.2304764,51.1047363 65.2656326,51.1706543 C65.3007889,51.2373047 65.3286209,51.3193359 65.3476639,51.416748 C65.3674393,51.5148926 65.3813553,51.6320801 65.3886795,51.7683105 C65.3967361,51.9052734 65.4003983,52.0634766 65.4003983,52.2421875 C65.4003983,52.4853516 65.3945389,52.6845703 65.3828201,52.8405762 C65.3711014,52.9973145 65.3498611,53.1159668 65.318367,53.197998 C65.2876053,53.2800293 65.252449,53.3349609 65.2128983,53.3620605 C65.1740799,53.3898926 65.1272049,53.4030762 65.0722733,53.4023438 C64.971199,53.4030762 64.8225174,53.3525391 64.6269608,53.2507324 C64.4321365,53.1496582 64.1919022,53.0397949 63.9062576,52.9226074 C63.6213455,52.8054199 63.2932205,52.6962891 62.9218826,52.5944824 C62.5512772,52.4934082 62.1425858,52.4421387 61.6972733,52.4414063 C61.2915115,52.4421387 60.9436111,52.4816895 60.6543045,52.5593262 C60.3657303,52.6376953 60.1313553,52.7468262 59.9511795,52.8874512 C59.7717361,53.0280762 59.6391678,53.1965332 59.552742,53.3913574 C59.4670486,53.5869141 59.4238358,53.8015137 59.4238358,54.0351563 C59.4238358,54.402832 59.5219803,54.7119141 59.7168045,54.9616699 C59.9123611,55.2121582 60.1723709,55.4267578 60.4961014,55.6062012 C60.8205643,55.786377 61.1875076,55.9504395 61.5976639,56.0983887 C62.0078201,56.2470703 62.426033,56.4030762 62.8515701,56.5671387 C63.2778397,56.7312012 63.6953201,56.9208984 64.1054764,57.135498 C64.5156326,57.3508301 64.8811111,57.6159668 65.2011795,57.932373 C65.5219803,58.2487793 65.7797928,58.6318359 65.974617,59.0808105 C66.1701736,59.5305176 66.2675858,60.0710449 66.2675858,60.703125 Z M80.552742,64.9101563 C80.552742,64.996582 80.5373611,65.0690918 80.505867,65.1276855 C80.4751053,65.1862793 80.4003983,65.2353516 80.2832108,65.2741699 C80.1660233,65.3129883 79.9946365,65.3400879 79.7675858,65.3554688 C79.5412674,65.371582 79.2329178,65.3789063 78.8418045,65.3789063 C78.5136795,65.3789063 78.2522049,65.371582 78.0566483,65.3554688 C77.861824,65.3400879 77.707283,65.310791 77.5937576,65.2683105 C77.4809647,65.2258301 77.4003983,65.1708984 77.3535233,65.104248 C77.3066483,65.0383301 77.2678299,64.9577637 77.2363358,64.8632813 L75.8769608,61.4765625 C75.7128983,61.0942383 75.5532303,60.755127 75.396492,60.4577637 C75.2404861,60.1611328 75.0669022,59.9128418 74.8750076,59.713623 C74.6838455,59.5144043 74.4633865,59.3642578 74.2128983,59.2624512 C73.9631424,59.161377 73.6738358,59.1101074 73.3457108,59.109375 L72.3847733,59.109375 L72.3847733,64.8867188 C72.3847733,64.9658203 72.3598709,65.0361328 72.3086014,65.0983887 C72.2580643,65.161377 72.1738358,65.2119141 72.0566483,65.2507324 C71.9394608,65.2902832 71.7834549,65.3203125 71.5878983,65.34375 C71.393074,65.3671875 71.1425858,65.3789063 70.8378983,65.3789063 C70.5412674,65.3789063 70.2929764,65.3671875 70.0937576,65.34375 C69.8945389,65.3203125 69.7363358,65.2902832 69.6191483,65.2507324 C69.5019608,65.2119141 69.4199295,65.161377 69.3730545,65.0983887 C69.3261795,65.0361328 69.302742,64.9658203 69.302742,64.8867188 L69.302742,51.1171875 C69.302742,50.7744141 69.3906326,50.526123 69.5664139,50.3737793 C69.7421951,50.2214355 69.958992,50.1452637 70.2168045,50.1445313 L74.1425858,50.1445313 C74.5410233,50.1452637 74.8691483,50.1533203 75.1269608,50.1687012 C75.3847733,50.1848145 75.6191483,50.2038574 75.8300858,50.2265625 C76.4394608,50.3129883 76.9887772,50.4616699 77.4765701,50.6726074 C77.9650955,50.8835449 78.3789139,51.1589355 78.7187576,51.4987793 C79.0586014,51.838623 79.3186111,52.2414551 79.4980545,52.7058105 C79.6782303,53.1708984 79.7675858,53.7041016 79.7675858,54.3046875 C79.7675858,54.8129883 79.7031326,55.2766113 79.5742264,55.6940918 C79.4453201,56.1123047 79.2563553,56.4851074 79.005867,56.8132324 C78.7561111,57.1413574 78.4477615,57.427002 78.0800858,57.6687012 C77.7131424,57.9111328 77.2949295,58.105957 76.8261795,58.2539063 C77.0532303,58.3637695 77.2656326,58.4970703 77.4648514,58.6530762 C77.6640701,58.8098145 77.8515701,58.9987793 78.0273514,59.2214355 C78.2031326,59.4440918 78.3693924,59.6982422 78.5253983,59.9831543 C78.6821365,60.2687988 78.8344803,60.590332 78.9824295,60.9492188 L80.2597733,63.9375 C80.3769608,64.2348633 80.4553299,64.4523926 80.4941483,64.588623 C80.533699,64.7255859 80.552742,64.8325195 80.552742,64.9101563 Z M76.5800858,54.6210938 C76.5800858,54.121582 76.4672928,53.7004395 76.240242,53.3562012 C76.0139236,53.0126953 75.6425858,52.7702637 75.1269608,52.6289063 C74.9709549,52.5908203 74.7929764,52.5593262 74.5937576,52.5358887 C74.3945389,52.5124512 74.1191483,52.5007324 73.7675858,52.5 L72.3847733,52.5 L72.3847733,56.8007813 L73.9550858,56.8007813 C74.393074,56.8015137 74.7753983,56.7487793 75.1035233,56.6433105 C75.4316483,56.5378418 75.705574,56.3898926 75.9238358,56.197998 C76.1428299,56.0068359 76.3068924,55.7783203 76.4160233,55.5124512 C76.5258865,55.2473145 76.5800858,54.9499512 76.5800858,54.6210938 Z M92.7050858,59.3789063 C92.7050858,59.7392578 92.6252518,60.005127 92.4648514,60.1765137 C92.3051834,60.3486328 92.083992,60.4343262 91.802742,60.4335938 L85.4394608,60.4335938 C85.4394608,60.8796387 85.4921951,61.2839355 85.5976639,61.6472168 C85.7031326,62.010498 85.8715897,62.3195801 86.1015701,62.572998 C86.332283,62.8271484 86.6289139,63.0205078 86.9921951,63.1530762 C87.3554764,63.286377 87.7912674,63.3522949 88.2988358,63.3515625 C88.8144608,63.3522949 89.2678299,63.3156738 89.6582108,63.2409668 C90.049324,63.1669922 90.3869705,63.0849609 90.6718826,62.994873 C90.9575272,62.9055176 91.193367,62.8234863 91.380867,62.7487793 C91.568367,62.6748047 91.7207108,62.6374512 91.8378983,62.6367188 C91.9082108,62.6374512 91.9668045,62.6513672 92.0136795,62.6784668 C92.0605545,62.7062988 92.1001053,62.7546387 92.130867,62.8249512 C92.1623611,62.8952637 92.1836014,62.994873 92.1953201,63.1237793 C92.2070389,63.2526855 92.2128983,63.4145508 92.2128983,63.609375 C92.2128983,63.7822266 92.2092361,63.9287109 92.2011795,64.0495605 C92.1938553,64.1711426 92.1821365,64.2744141 92.1660233,64.3601074 C92.1506424,64.4465332 92.1272049,64.5183105 92.0957108,64.5769043 C92.064949,64.635498 92.0239334,64.692627 91.9726639,64.7468262 C91.9221268,64.8017578 91.783699,64.8757324 91.5566483,64.9694824 C91.3303299,65.0632324 91.0410233,65.1555176 90.6894608,65.244873 C90.3378983,65.3342285 89.9357986,65.4125977 89.4824295,65.4785156 C89.0297928,65.545166 88.5449295,65.578125 88.0293045,65.578125 C87.0998611,65.578125 86.285408,65.4616699 85.5859451,65.2272949 C84.8872147,64.9929199 84.302742,64.6376953 83.833992,64.1608887 C83.365242,63.6848145 83.0158768,63.0827637 82.7851639,62.3562012 C82.5551834,61.6296387 82.4394608,60.777832 82.4394608,59.8007813 C82.4394608,58.8720703 82.5610428,58.0341797 82.802742,57.2878418 C83.0451736,56.5422363 83.3967361,55.9094238 83.8574295,55.3894043 C84.3188553,54.8701172 84.879158,54.473877 85.5390701,54.1999512 C86.1997147,53.9267578 86.9438553,53.7897949 87.771492,53.7890625 C88.6467361,53.7897949 89.3945389,53.9187012 90.0156326,54.1765137 C90.6367264,54.4343262 91.146492,54.791748 91.5449295,55.2487793 C91.943367,55.7058105 92.2363358,56.2470703 92.4238358,56.8718262 C92.6113358,57.4973145 92.7050858,58.1762695 92.7050858,58.9101563 Z M89.8457108,58.5351563 C89.8691483,57.7075195 89.7036209,57.0578613 89.3476639,56.5847168 C88.9924393,56.1123047 88.4438553,55.8757324 87.7011795,55.875 C87.3261795,55.8757324 87.0002518,55.9460449 86.7226639,56.0866699 C86.4458084,56.2272949 86.2150955,56.4169922 86.0312576,56.6550293 C85.8481522,56.8937988 85.7075272,57.1750488 85.6093826,57.4987793 C85.5119705,57.8232422 85.455574,58.1689453 85.4394608,58.5351563 Z M103.4043045,63.2460938 C103.4043045,63.449707 103.3984451,63.6203613 103.3867264,63.7565918 C103.3750076,63.8935547 103.3596268,64.0085449 103.3398514,64.1022949 C103.3208084,64.1960449 103.2973709,64.2722168 103.2695389,64.3308105 C103.2424393,64.3894043 103.1816483,64.4641113 103.0878983,64.5534668 C102.9941483,64.6435547 102.8344803,64.7526855 102.6074295,64.8815918 C102.3811111,65.010498 102.1232986,65.1262207 101.833992,65.2272949 C101.5454178,65.3283691 101.2304764,65.4104004 100.8906326,65.4726563 C100.5507889,65.5356445 100.2014236,65.5664063 99.8418045,65.5664063 C99.0376053,65.5664063 98.3242264,65.4418945 97.7031326,65.1921387 C97.0820389,64.9423828 96.5605545,64.5732422 96.1386795,64.0847168 C95.7168045,63.5969238 95.3989334,63.0007324 95.1836014,62.2976074 C94.9690018,61.5944824 94.8613358,60.7895508 94.8613358,59.8828125 C94.8613358,58.8369141 94.9924393,57.932373 95.2539139,57.1706543 C95.5161209,56.4089355 95.880867,55.7783203 96.349617,55.2780762 C96.818367,54.7785645 97.3735428,54.4072266 98.0136795,54.1647949 C98.6545486,53.9230957 99.3576736,53.8015137 100.1230545,53.8007813 C100.4357986,53.8015137 100.7426834,53.8293457 101.0429764,53.8835449 C101.3440018,53.9384766 101.6252518,54.0124512 101.8867264,54.1062012 C102.1489334,54.1999512 102.3833084,54.3054199 102.5898514,54.4226074 C102.7971268,54.5397949 102.9436111,54.6416016 103.0293045,54.7272949 C103.1157303,54.8137207 103.1757889,54.885498 103.2109451,54.9440918 C103.2461014,55.0026855 103.2739334,55.0788574 103.2929764,55.1726074 C103.3127518,55.2663574 103.3281326,55.3820801 103.3398514,55.5183105 C103.3515701,55.6552734 103.3574295,55.8208008 103.3574295,56.015625 C103.3574295,56.4697266 103.3186111,56.7883301 103.240242,56.9714355 C103.1626053,57.1552734 103.0607986,57.2468262 102.9355545,57.2460938 C102.8029861,57.2468262 102.6623611,57.192627 102.5136795,57.0827637 C102.3657303,56.9736328 102.189949,56.8527832 101.9863358,56.7194824 C101.7834549,56.5869141 101.5410233,56.4660645 101.2597733,56.3562012 C100.9785233,56.2470703 100.643074,56.1921387 100.2519608,56.1914063 C99.4865799,56.1921387 98.9006424,56.4873047 98.4941483,57.0769043 C98.0883865,57.6672363 97.8847733,58.5322266 97.8847733,59.671875 C97.8847733,60.2351074 97.9360428,60.7316895 98.037117,61.1608887 C98.1389236,61.5908203 98.2890701,61.9504395 98.4882889,62.2390137 C98.6875076,62.5283203 98.9379959,62.7451172 99.2382889,62.8894043 C99.5393143,63.0344238 99.8886795,63.1062012 100.287117,63.1054688 C100.6936111,63.1062012 101.0429764,63.0461426 101.3359451,62.9245605 C101.6289139,62.8037109 101.8852615,62.6689453 102.1035233,62.5202637 C102.3225174,62.3723145 102.5063553,62.2375488 102.6543045,62.1159668 C102.8029861,61.9951172 102.9282303,61.9343262 103.0293045,61.9335938 C103.099617,61.9343262 103.1582108,61.9541016 103.2050858,61.9929199 C103.2519608,62.0324707 103.2893143,62.104248 103.3164139,62.2097168 C103.3442459,62.3151855 103.3654861,62.4499512 103.380867,62.6140137 C103.3969803,62.7780762 103.4043045,62.9890137 103.4043045,63.2460938 Z M111.9003983,65.3085938 L110.6347733,69.0117188 C110.5644608,69.2072754 110.3732986,69.3479004 110.0605545,69.4335938 C109.7485428,69.5200195 109.2915115,69.5625 108.6894608,69.5625 C108.377449,69.5625 108.1269608,69.5493164 107.9394608,69.5214844 C107.7519608,69.4943848 107.6113358,69.449707 107.5175858,69.3867188 C107.4238358,69.3244629 107.3732986,69.2460938 107.365242,69.1523438 C107.3579178,69.0585938 107.3813553,68.9458008 107.4355545,68.8125 L108.8300858,65.3085938 C108.7290115,65.2624512 108.6367264,65.1906738 108.5546951,65.0925293 C108.4726639,64.9951172 108.4126053,64.8911133 108.3730545,64.78125 L104.7753983,55.171875 C104.674324,54.8994141 104.6230545,54.6906738 104.6230545,54.5456543 C104.6230545,54.4013672 104.6699295,54.2878418 104.7636795,54.2058105 C104.8574295,54.1237793 105.0156326,54.0673828 105.2382889,54.0358887 C105.4609451,54.005127 105.7561111,53.9890137 106.1230545,53.9882813 C106.4592361,53.9890137 106.7251053,53.994873 106.9199295,54.0065918 C107.1154861,54.0183105 107.2678299,54.0476074 107.3769608,54.0944824 C107.486824,54.1413574 107.5688553,54.2138672 107.6230545,54.3112793 C107.6779861,54.4094238 107.7329178,54.5478516 107.787117,54.7265625 L110.2480545,61.7226563 L110.2832108,61.7226563 L112.5332108,54.5859375 C112.5800858,54.3837891 112.6408768,54.2490234 112.7148514,54.182373 C112.7895584,54.1164551 112.9126053,54.0673828 113.083992,54.0358887 C113.2561111,54.005127 113.5571365,53.9890137 113.9863358,53.9882813 C114.3225174,53.9890137 114.6015701,54.005127 114.8242264,54.0358887 C115.0468826,54.0673828 115.2109451,54.1259766 115.3164139,54.2116699 C115.4218826,54.2980957 115.474617,54.4130859 115.474617,54.557373 C115.474617,54.7023926 115.4438553,54.871582 115.380867,55.0664063 Z M125.458992,63.2460938 C125.458992,63.449707 125.4531326,63.6203613 125.4414139,63.7565918 C125.4296951,63.8935547 125.4143143,64.0085449 125.3945389,64.1022949 C125.3754959,64.1960449 125.3520584,64.2722168 125.3242264,64.3308105 C125.2971268,64.3894043 125.2363358,64.4641113 125.1425858,64.5534668 C125.0488358,64.6435547 124.8891678,64.7526855 124.662117,64.8815918 C124.4357986,65.010498 124.1779861,65.1262207 123.8886795,65.2272949 C123.6001053,65.3283691 123.2851639,65.4104004 122.9453201,65.4726563 C122.6054764,65.5356445 122.2561111,65.5664063 121.896492,65.5664063 C121.0922928,65.5664063 120.3789139,65.4418945 119.7578201,65.1921387 C119.1367264,64.9423828 118.615242,64.5732422 118.193367,64.0847168 C117.771492,63.5969238 117.4536209,63.0007324 117.2382889,62.2976074 C117.0236893,61.5944824 116.9160233,60.7895508 116.9160233,59.8828125 C116.9160233,58.8369141 117.0471268,57.932373 117.3086014,57.1706543 C117.5708084,56.4089355 117.9355545,55.7783203 118.4043045,55.2780762 C118.8730545,54.7785645 119.4282303,54.4072266 120.068367,54.1647949 C120.7092361,53.9230957 121.4123611,53.8015137 122.177742,53.8007813 C122.4904861,53.8015137 122.7973709,53.8293457 123.0976639,53.8835449 C123.3986893,53.9384766 123.6799393,54.0124512 123.9414139,54.1062012 C124.2036209,54.1999512 124.4379959,54.3054199 124.6445389,54.4226074 C124.8518143,54.5397949 124.9982986,54.6416016 125.083992,54.7272949 C125.1704178,54.8137207 125.2304764,54.885498 125.2656326,54.9440918 C125.3007889,55.0026855 125.3286209,55.0788574 125.3476639,55.1726074 C125.3674393,55.2663574 125.3828201,55.3820801 125.3945389,55.5183105 C125.4062576,55.6552734 125.412117,55.8208008 125.412117,56.015625 C125.412117,56.4697266 125.3732986,56.7883301 125.2949295,56.9714355 C125.2172928,57.1552734 125.1154861,57.2468262 124.990242,57.2460938 C124.8576736,57.2468262 124.7170486,57.192627 124.568367,57.0827637 C124.4204178,56.9736328 124.2446365,56.8527832 124.0410233,56.7194824 C123.8381424,56.5869141 123.5957108,56.4660645 123.3144608,56.3562012 C123.0332108,56.2470703 122.6977615,56.1921387 122.3066483,56.1914063 C121.5412674,56.1921387 120.9553299,56.4873047 120.5488358,57.0769043 C120.143074,57.6672363 119.9394608,58.5322266 119.9394608,59.671875 C119.9394608,60.2351074 119.9907303,60.7316895 120.0918045,61.1608887 C120.1936111,61.5908203 120.3437576,61.9504395 120.5429764,62.2390137 C120.7421951,62.5283203 120.9926834,62.7451172 121.2929764,62.8894043 C121.5940018,63.0344238 121.943367,63.1062012 122.3418045,63.1054688 C122.7482986,63.1062012 123.0976639,63.0461426 123.3906326,62.9245605 C123.6836014,62.8037109 123.939949,62.6689453 124.1582108,62.5202637 C124.3772049,62.3723145 124.5610428,62.2375488 124.708992,62.1159668 C124.8576736,61.9951172 124.9829178,61.9343262 125.083992,61.9335938 C125.1543045,61.9343262 125.2128983,61.9541016 125.2597733,61.9929199 C125.3066483,62.0324707 125.3440018,62.104248 125.3711014,62.2097168 C125.3989334,62.3151855 125.4201736,62.4499512 125.4355545,62.6140137 C125.4516678,62.7780762 125.458992,62.9890137 125.458992,63.2460938 Z M130.8496246,64.9101563 C130.8496246,64.9892578 130.8261871,65.057373 130.7793121,65.1159668 C130.7324371,65.1745605 130.6526031,65.2236328 130.5390778,65.2624512 C130.4262848,65.302002 130.2754059,65.3305664 130.0879059,65.3496094 C129.9004059,65.3693848 129.6623688,65.3789063 129.3730621,65.3789063 C129.0844879,65.3789063 128.8457184,65.3693848 128.6582184,65.3496094 C128.4707184,65.3305664 128.3205719,65.302002 128.2070465,65.2624512 C128.0942535,65.2236328 128.0136871,65.1745605 127.9668045,65.1159668 C127.9199295,65.057373 127.896492,64.9892578 127.896492,64.9101563 L127.896492,49.5 C127.896492,49.4223633 127.9199295,49.3527832 127.9668045,49.2897949 C128.0136871,49.2275391 128.0942535,49.1748047 128.2070465,49.1315918 C128.3205719,49.0891113 128.4707184,49.0554199 128.6582184,49.0319824 C128.8457184,49.0085449 129.0844879,48.9968262 129.3730621,48.9960938 C129.6623688,48.9968262 129.9004059,49.0085449 130.0879059,49.0319824 C130.2754059,49.0554199 130.4262848,49.0891113 130.5390778,49.1315918 C130.6526031,49.1748047 130.7324371,49.2275391 130.7793121,49.2897949 C130.8261871,49.3527832 130.8496246,49.4223633 130.8496246,49.5 Z M143.6230469,59.3789063 C143.6230469,59.7392578 143.5432129,60.005127 143.3828125,60.1765137 C143.2231445,60.3486328 143.0019531,60.4343262 142.7207031,60.4335938 L136.3574219,60.4335938 C136.3574219,60.8796387 136.4101563,61.2839355 136.515625,61.6472168 C136.6210938,62.010498 136.7895508,62.3195801 137.0195313,62.572998 C137.2502441,62.8271484 137.546875,63.0205078 137.9101563,63.1530762 C138.2734375,63.286377 138.7092285,63.3522949 139.2167969,63.3515625 C139.7324219,63.3522949 140.185791,63.3156738 140.5761719,63.2409668 C140.9672852,63.1669922 141.3049316,63.0849609 141.5898438,62.994873 C141.8754883,62.9055176 142.1113281,62.8234863 142.2988281,62.7487793 C142.4863281,62.6748047 142.6386719,62.6374512 142.7558594,62.6367188 C142.8261719,62.6374512 142.8847656,62.6513672 142.9316406,62.6784668 C142.9785156,62.7062988 143.0180664,62.7546387 143.0488281,62.8249512 C143.0803223,62.8952637 143.1015625,62.994873 143.1132813,63.1237793 C143.125,63.2526855 143.1308594,63.4145508 143.1308594,63.609375 C143.1308594,63.7822266 143.1271973,63.9287109 143.1191406,64.0495605 C143.1118164,64.1711426 143.1000977,64.2744141 143.0839844,64.3601074 C143.0686035,64.4465332 143.045166,64.5183105 143.0136719,64.5769043 C142.9829102,64.635498 142.9418945,64.692627 142.890625,64.7468262 C142.8400879,64.8017578 142.7016602,64.8757324 142.4746094,64.9694824 C142.248291,65.0632324 141.9589844,65.1555176 141.6074219,65.244873 C141.2558594,65.3342285 140.8537598,65.4125977 140.4003906,65.4785156 C139.9477539,65.545166 139.4628906,65.578125 138.9472656,65.578125 C138.0178223,65.578125 137.2033691,65.4616699 136.5039063,65.2272949 C135.8051758,64.9929199 135.2207031,64.6376953 134.7519684,64.1608887 C134.2832184,63.6848145 133.9338531,63.0827637 133.7031403,62.3562012 C133.4731598,61.6296387 133.3574371,60.777832 133.3574371,59.8007813 C133.3574371,58.8720703 133.4790192,58.0341797 133.7207184,57.2878418 C133.96315,56.5422363 134.3147125,55.9094238 134.7754059,55.3894043 C135.2368164,54.8701172 135.7971191,54.473877 136.4570313,54.1999512 C137.1176758,53.9267578 137.8618164,53.7897949 138.6894531,53.7890625 C139.5646973,53.7897949 140.3125,53.9187012 140.9335938,54.1765137 C141.5546875,54.4343262 142.0644531,54.791748 142.4628906,55.2487793 C142.8613281,55.7058105 143.1542969,56.2470703 143.3417969,56.8718262 C143.5292969,57.4973145 143.6230469,58.1762695 143.6230469,58.9101563 Z M140.7636719,58.5351563 C140.7871094,57.7075195 140.621582,57.0578613 140.265625,56.5847168 C139.9104004,56.1123047 139.3618164,55.8757324 138.6191406,55.875 C138.2441406,55.8757324 137.9182129,55.9460449 137.640625,56.0866699 C137.3637695,56.2272949 137.1330566,56.4169922 136.9492188,56.6550293 C136.7661133,56.8937988 136.6254883,57.1750488 136.5273438,57.4987793 C136.4299316,57.8232422 136.3735352,58.1689453 136.3574219,58.5351563 Z M149.8808594,63.6210938 C149.8808594,64.3483887 149.7541504,64.8369141 149.5,65.0866699 C149.246582,65.3364258 148.7910156,65.4609375 148.1347656,65.4609375 C147.4785156,65.4609375 147.0258789,65.338623 146.7753906,65.0925293 C146.5256348,64.8464355 146.4003906,64.3798828 146.4003906,63.6914063 C146.4003906,62.9575195 146.527832,62.4660645 146.78125,62.2155762 C147.0354004,61.9658203 147.4946289,61.8405762 148.1582031,61.8398438 C148.8071289,61.8405762 149.2561035,61.963623 149.5058594,62.2097168 C149.7563477,62.4558105 149.8808594,62.9267578 149.8808594,63.6210938 Z M164.1660156,60.7617188 C164.1660156,61.3015137 164.092041,61.7900391 163.9433594,62.2272949 C163.7954102,62.6652832 163.590332,63.052002 163.328125,63.3874512 C163.0666504,63.7236328 162.7539063,64.0129395 162.390625,64.2546387 C162.0273438,64.4970703 161.6274414,64.6962891 161.1894531,64.8522949 C160.7521973,65.0090332 160.2856445,65.1240234 159.7890625,65.197998 C159.2932129,65.2727051 158.7402344,65.3085938 158.1308594,65.3085938 L154.0996094,65.3085938 C153.8417969,65.3085938 153.625,65.2331543 153.4492188,65.0808105 C153.2734375,64.9284668 153.1855469,64.6801758 153.1855469,64.3359375 L153.1855469,51.1171875 C153.1855469,50.7744141 153.2734375,50.526123 153.4492188,50.3737793 C153.625,50.2214355 153.8417969,50.1452637 154.0996094,50.1445313 L157.9082031,50.1445313 C158.8383789,50.1452637 159.625,50.2236328 160.2695313,50.3796387 C160.9140625,50.536377 161.4575195,50.7722168 161.8984375,51.088623 C162.3400879,51.4050293 162.6777344,51.8056641 162.9121094,52.2897949 C163.1464844,52.7746582 163.2636719,53.3444824 163.2636719,54 C163.2636719,54.3676758 163.2167969,54.7141113 163.1230469,55.0378418 C163.0292969,55.3623047 162.8930664,55.6574707 162.7128906,55.9226074 C162.5334473,56.1884766 162.3129883,56.4228516 162.0507813,56.6257324 C161.7893066,56.8293457 161.4904785,56.9926758 161.1542969,57.1171875 C161.5842285,57.1962891 161.9804688,57.333252 162.34375,57.5280762 C162.7070313,57.7236328 163.0234375,57.9755859 163.2929688,58.2839355 C163.5625,58.5930176 163.7756348,58.9541016 163.9316406,59.3679199 C164.0883789,59.7824707 164.1660156,60.2468262 164.1660156,60.7617188 Z M160.1816406,54.375 C160.1816406,54.0710449 160.1347656,53.7978516 160.0410156,53.5554199 C159.9472656,53.3137207 159.8066406,53.1123047 159.6191406,52.9519043 C159.4316406,52.7922363 159.1958008,52.6691895 158.9101563,52.5827637 C158.6252441,52.4970703 158.2443848,52.4538574 157.7675781,52.453125 L156.2089844,52.453125 L156.2089844,56.390625 L157.9316406,56.390625 C158.3769531,56.3913574 158.7329102,56.338623 158.9980469,56.2331543 C159.263916,56.1276855 159.484375,55.9833984 159.6601563,55.7995605 C159.8359375,55.6164551 159.967041,55.401123 160.0527344,55.1550293 C160.1391602,54.9089355 160.1816406,54.6489258 160.1816406,54.375 Z M160.9667969,60.8671875 C160.9667969,60.5163574 160.9082031,60.2021484 160.7910156,59.9245605 C160.6738281,59.6477051 160.5024414,59.4147949 160.2753906,59.2272949 C160.0490723,59.0397949 159.7597656,58.8955078 159.4082031,58.7937012 C159.0566406,58.692627 158.5996094,58.6413574 158.0371094,58.640625 L156.2089844,58.640625 L156.2089844,62.953125 L158.4355469,62.953125 C158.8654785,62.9538574 159.2265625,62.9091797 159.5195313,62.8190918 C159.8125,62.7297363 160.0666504,62.5964355 160.28125,62.4206543 C160.496582,62.244873 160.6643066,62.0266113 160.7851563,61.7644043 C160.9067383,61.5029297 160.9667969,61.2041016 160.9667969,60.8671875 Z M169.8144531,64.9101563 C169.8144531,64.9892578 169.7910156,65.057373 169.7441406,65.1159668 C169.6972656,65.1745605 169.6174316,65.2236328 169.5039063,65.2624512 C169.3911133,65.302002 169.2402344,65.3305664 169.0527344,65.3496094 C168.8652344,65.3693848 168.6271973,65.3789063 168.3378906,65.3789063 C168.0493164,65.3789063 167.8105469,65.3693848 167.6230469,65.3496094 C167.4355469,65.3305664 167.2854004,65.302002 167.171875,65.2624512 C167.059082,65.2236328 166.9785156,65.1745605 166.9316406,65.1159668 C166.8847656,65.057373 166.8613281,64.9892578 166.8613281,64.9101563 L166.8613281,54.4804688 C166.8613281,54.402832 166.8847656,54.3347168 166.9316406,54.276123 C166.9785156,54.2175293 167.059082,54.1669922 167.171875,54.1237793 C167.2854004,54.0812988 167.4355469,54.0476074 167.6230469,54.0241699 C167.8105469,54.0007324 168.0493164,53.9890137 168.3378906,53.9882813 C168.6271973,53.9890137 168.8652344,54.0007324 169.0527344,54.0241699 C169.2402344,54.0476074 169.3911133,54.0812988 169.5039063,54.1237793 C169.6174316,54.1669922 169.6972656,54.2175293 169.7441406,54.276123 C169.7910156,54.3347168 169.8144531,54.402832 169.8144531,54.4804688 Z M170.0371094,50.9179688 C170.0371094,51.5126953 169.9162598,51.9228516 169.6738281,52.1491699 C169.4321289,52.3762207 168.9824219,52.4890137 168.3261719,52.4882813 C167.6625977,52.4890137 167.2150879,52.3798828 166.984375,52.1608887 C166.7543945,51.942627 166.6386719,51.5478516 166.6386719,50.9765625 C166.6386719,50.3833008 166.7580566,49.9716797 166.9960938,49.7409668 C167.2348633,49.5109863 167.6860352,49.3952637 168.3496094,49.3945313 C169.0058594,49.3952637 169.4511719,49.5065918 169.6855469,49.729248 C169.9199219,49.9519043 170.0371094,50.3481445 170.0371094,50.9179688 Z M182.9160156,64.9101563 C182.9160156,64.9892578 182.8925781,65.057373 182.8457031,65.1159668 C182.7988281,65.1745605 182.7211914,65.2236328 182.6113281,65.2624512 C182.5021973,65.302002 182.3520508,65.3305664 182.1601563,65.3496094 C181.9689941,65.3693848 181.7324219,65.3789063 181.4511719,65.3789063 C181.1625977,65.3789063 180.9223633,65.3693848 180.7304688,65.3496094 C180.5393066,65.3305664 180.3891602,65.302002 180.2792969,65.2624512 C180.170166,65.2236328 180.0917969,65.1745605 180.0449219,65.1159668 C179.9980469,65.057373 179.9746094,64.9892578 179.9746094,64.9101563 L179.9746094,58.9453125 C179.9746094,58.4384766 179.9379883,58.0400391 179.8632813,57.7507324 C179.7893066,57.4621582 179.6816406,57.2138672 179.5410156,57.0065918 C179.4003906,56.8000488 179.21875,56.6396484 178.9960938,56.526123 C178.7734375,56.4133301 178.5141602,56.3562012 178.2167969,56.3554688 C177.8417969,56.3562012 177.4631348,56.4931641 177.0800781,56.7663574 C176.6977539,57.0402832 176.2993164,57.4379883 175.8847656,57.9609375 L175.8847656,64.9101563 C175.8847656,64.9892578 175.8613281,65.057373 175.8144531,65.1159668 C175.7675781,65.1745605 175.6877441,65.2236328 175.5742188,65.2624512 C175.4614258,65.302002 175.3105469,65.3305664 175.1230469,65.3496094 C174.9355469,65.3693848 174.6975098,65.3789063 174.4082031,65.3789063 C174.1196289,65.3789063 173.8808594,65.3693848 173.6933594,65.3496094 C173.5058594,65.3305664 173.3557129,65.302002 173.2421875,65.2624512 C173.1293945,65.2236328 173.0488281,65.1745605 173.0019531,65.1159668 C172.9550781,65.057373 172.9316406,64.9892578 172.9316406,64.9101563 L172.9316406,54.4570313 C172.9316406,54.3793945 172.951416,54.3112793 172.9902344,54.2526855 C173.0297852,54.1940918 173.1000977,54.145752 173.2011719,54.1062012 C173.3029785,54.0673828 173.434082,54.0380859 173.59375,54.0183105 C173.7541504,53.9992676 173.9555664,53.9890137 174.1972656,53.9882813 C174.4477539,53.9890137 174.6542969,53.9992676 174.8183594,54.0183105 C174.9824219,54.0380859 175.1098633,54.0673828 175.1992188,54.1062012 C175.2893066,54.145752 175.3537598,54.1940918 175.3925781,54.2526855 C175.4321289,54.3112793 175.4511719,54.3793945 175.4511719,54.4570313 L175.4511719,55.6640625 C176.0297852,55.0400391 176.6171875,54.5712891 177.2148438,54.2585449 C177.8125,53.9465332 178.435791,53.7897949 179.0839844,53.7890625 C179.795166,53.7897949 180.3950195,53.9069824 180.8828125,54.1413574 C181.3713379,54.3757324 181.7661133,54.6943359 182.0664063,55.0964355 C182.3674316,55.4992676 182.5842285,55.9694824 182.7167969,56.5085449 C182.8500977,57.0476074 182.9160156,57.6958008 182.9160156,58.453125 Z" style="fill:rgb(255,255,255);stroke:none" clip-path="url(#clip3)" />
<clipPath id="clip4"><path d="M15,156 L225,156 L225,383 L15,383 Z M120,156 L35,213 L120,270 L205,213 Z" /></clipPath>
<path d="M120,285 L73,285 C70.7919998,285 69,286.7919922 69,289 L69,290" style="fill:none;stroke:rgb(89,89,89);stroke-width:3" clip-path="url(#clip4)" />
<clipPath id="clip5"><path d="M15,156 L225,156 L225,383 L15,383 Z M120,156 L35,213 L120,270 L205,213 Z" /></clipPath>
<path d="M120,285 L170,285 C172.2080078,285 174,286.7919922 174,289 L174,290" style="fill:none;stroke:rgb(89,89,89);stroke-width:3" clip-path="url(#clip5)" />
<clipPath id="clip6"><path d="M14,155 L226,155 L226,384 L14,384 L14,155 Z" /></clipPath>
<path d="M120,270 L120,285" style="fill:none;stroke:rgb(89,89,89);stroke-width:3" clip-path="url(#clip6)" />
<clipPath id="clip7"><path d="M34,155 L207,155 L207,272 L34,272 L34,155 Z" /></clipPath>
<path d="M120,156 L35,213 L120,270 L205,213 Z" style="fill:rgb(89,89,89);stroke:none" clip-path="url(#clip7)" />
<clipPath id="clip8"><path d="M69,190 L172,190 L172,237 L69,237 L69,190 Z" /></clipPath>
<path d="M77.4521561,206.9260101 L80.9052811,196.9567719 L82.6484451,196.9567719 L78.1660233,209.0427094 L76.7548904,209.0427094 L72.2807693,196.9567719 L74.0156326,196.9567719 Z M88.0771561,209.208725 C86.860054,209.208725 85.8691483,208.8097687 85.1054764,208.0097809 C84.3418045,207.2103119 83.9599686,206.1405487 83.9599686,204.8010101 L83.9599686,204.5187836 C83.9599686,203.6285248 84.1301346,202.8332062 84.4704666,202.1328278 C84.8107986,201.4329681 85.287056,200.8851166 85.898201,200.4892731 C86.5098648,200.0939484 87.1723709,199.8957672 87.8862381,199.8952484 C89.0540543,199.8957672 89.9614334,200.2807159 90.6088943,201.0495758 C91.2563553,201.8189545 91.5800858,202.9198456 91.5800858,204.3527679 L91.5800858,204.9919281 L85.4956131,204.9919281 C85.5179214,205.8780365 85.7768021,206.5934601 86.2717361,207.1381989 C86.767189,207.6834564 87.396492,207.9558258 88.1601639,207.955307 C88.7028275,207.9558258 89.1619644,207.8453217 89.5380936,207.6237946 C89.9147415,207.4027863 90.24366,207.1091461 90.5258865,206.7433929 L91.4638748,207.4738617 C90.7116165,208.6307831 89.5827103,209.208725 88.0771561,209.208725 Z M87.8862381,201.1569672 C87.2667923,201.157486 86.7464371,201.3831635 86.3256912,201.8339996 C85.9054642,202.2853546 85.6450272,202.9172516 85.5454178,203.7302094 L90.0444412,203.7302094 L90.0444412,203.6139984 C90.0003433,202.8342438 89.7902298,202.2298431 89.4135818,201.8007965 C89.0374527,201.3722687 88.528511,201.157486 87.8862381,201.1569672 Z M97.9716873,201.4391937 C97.7392654,201.4008026 97.487648,201.3816071 97.2163162,201.3810883 C96.2093277,201.3816071 95.5260696,201.8106537 95.1660233,202.6677094 L95.1660233,209.0427094 L93.6303787,209.0427094 L93.6303787,200.061264 L95.1245193,200.061264 L95.1494217,201.0988617 C95.6531754,200.2967987 96.3670425,199.8957672 97.2910233,199.8952484 C97.5898514,199.8957672 97.8170853,199.9346771 97.9716873,200.0114594 Z M104.7866287,206.6603851 C104.7866287,206.2458649 104.6304703,205.9236908 104.3176346,205.6938629 C104.0053177,205.4645538 103.4600601,205.2663727 102.6823807,205.1003571 C101.90522,204.9343414 101.2878494,204.7351227 100.8313065,204.5027008 C100.3747635,204.2702789 100.0375443,203.9937592 99.8186111,203.6726227 C99.6001968,203.352005 99.4907303,202.9696503 99.4907303,202.5265961 C99.4907303,201.7909393 99.8020096,201.1688995 100.4245682,200.6594391 C101.0471268,200.1504974 101.8429642,199.8957672 102.8110428,199.8952484 C103.8294449,199.8957672 104.6553726,200.1587982 105.288826,200.6843414 C105.9227982,201.2104034 106.2392654,201.8822479 106.2392654,202.7009125 L104.6953201,202.7009125 C104.6953201,202.2806854 104.5168533,201.9185638 104.1599197,201.6140289 C103.8029861,201.3100128 103.3537064,201.157486 102.8110428,201.1569672 C102.2522964,201.157486 101.814949,201.2794037 101.4995193,201.5227203 C101.1840897,201.7665558 101.0263748,202.0845795 101.0263748,202.4767914 C101.0263748,202.8482513 101.1731949,203.1278839 101.4663162,203.3156891 C101.7599564,203.5040131 102.28965,203.6840363 103.0559158,203.8552399 C103.8227005,204.0269623 104.4437027,204.2318878 104.9194412,204.4694977 C105.3956985,204.7076263 105.7484818,204.9940033 105.9777908,205.3286285 C106.2076187,205.6637726 106.3222733,206.0715485 106.3222733,206.552475 C106.3222733,207.3555756 106.0016556,207.9988861 105.3593826,208.4829254 C104.7176285,208.9674835 103.8849564,209.208725 102.8608475,209.208725 C102.1417923,209.208725 101.5052261,209.0816193 100.9516678,208.8274078 C100.3986282,208.5731964 99.9654312,208.2173004 99.6525955,207.7607574 C99.3402786,207.3042145 99.1836014,206.810318 99.1836014,206.2785492 L100.7192459,206.2785492 C100.747261,206.7937164 100.9532242,207.2020111 101.3376541,207.5034332 C101.7226028,207.8053741 102.2299881,207.9558258 102.8608475,207.955307 C103.4419022,207.9558258 103.9083023,207.8385773 104.2595291,207.6030426 C104.6112747,207.3680267 104.7866287,207.0536346 104.7866287,206.6603851 Z M110.2568436,209.0427094 L108.721199,209.0427094 L108.721199,200.061264 L110.2568436,200.061264 Z M108.5966873,197.6789398 C108.5966873,197.4304352 108.6729507,197.2203217 108.8249588,197.0485992 C108.9774857,196.8773956 109.2026443,196.791275 109.5014725,196.791275 C109.8003006,196.791275 110.0275345,196.8773956 110.1821365,197.0485992 C110.3372574,197.2203217 110.4145584,197.4304352 110.4145584,197.6794586 C110.4145584,197.9284821 110.3372574,198.1360016 110.1821365,198.3020172 C110.0275345,198.4680328 109.8003006,198.5510406 109.5014725,198.5510406 C109.2026443,198.5510406 108.9774857,198.4680328 108.8249588,198.3020172 C108.6729507,198.1360016 108.5966873,197.9284821 108.5966873,197.6789398 Z M112.4316483,204.4689789 C112.4316483,203.5896149 112.6049271,202.7984467 112.9504471,202.0954742 C113.2964859,201.3930206 113.7779312,200.8503571 114.394783,200.4685211 C115.0121536,200.0866852 115.7161636,199.8957672 116.5073318,199.8952484 C117.7306595,199.8957672 118.7194901,200.3191071 119.4748611,201.1657867 C120.2302322,202.0124664 120.6079178,203.1387787 120.6079178,204.5436859 L120.6079178,204.6515961 C120.6079178,205.5262909 120.4408646,206.3112335 120.1057205,207.0053864 C119.7710953,207.700058 119.292244,208.2411652 118.6696854,208.6281891 C118.0471268,209.0157318 117.332222,209.208725 116.5239334,209.208725 C115.3068314,209.208725 114.320076,208.7859039 113.5647049,207.9392242 C112.8093338,207.0925446 112.4316483,205.9719391 112.4316483,204.576889 Z M113.9755936,204.6515961 C113.9755936,205.6482086 114.2069778,206.4481964 114.6687088,207.0510406 C115.1309586,207.6544037 115.7493668,207.9558258 116.5239334,207.955307 C117.3042068,207.9558258 117.9241714,207.6502533 118.3833084,207.0385895 C118.8429642,206.4274445 119.0722733,205.5709076 119.0722733,204.4689789 C119.0722733,203.4842987 118.8388138,202.6863861 118.3708572,202.0747223 C117.9034195,201.4635773 117.2824173,201.157486 116.5073318,201.1569672 C115.7493668,201.157486 115.1377029,201.4594269 114.6728592,202.0622711 C114.2080154,202.6656342 113.9755936,203.5289154 113.9755936,204.6515961 Z M124.2768631,200.061264 L124.3266678,201.1901703 C125.0130386,200.3274078 125.909523,199.8957672 127.0161209,199.8952484 C128.9143982,199.8957672 129.871582,200.966568 129.8881836,203.1076508 L129.8881836,209.0427094 L128.3525391,209.0427094 L128.3525391,203.09935 C128.3473511,202.4524078 128.1989746,201.9740753 127.9084549,201.6638336 C127.6179276,201.3541107 127.165535,201.1989899 126.5512772,201.1984711 C126.0532303,201.1989899 125.6164017,201.3318024 125.2397537,201.5974274 C124.8636246,201.8630524 124.5705032,202.2116852 124.3598709,202.642807 L124.3598709,209.0427094 L122.8242264,209.0427094 L122.8242264,200.061264 Z M138.2719727,200.061264 L138.3217773,201.1901703 C139.0081482,200.3274078 139.9046326,199.8957672 141.0112305,199.8952484 C142.9095154,199.8957672 143.8666992,200.966568 143.8833008,203.1076508 L143.8833008,209.0427094 L142.3476563,209.0427094 L142.3476563,203.09935 C142.3424683,202.4524078 142.1940918,201.9740753 141.9035645,201.6638336 C141.6130371,201.3541107 141.1606445,201.1989899 140.5463867,201.1984711 C140.0483398,201.1989899 139.6115112,201.3318024 139.2348633,201.5974274 C138.8587341,201.8630524 138.5656128,202.2116852 138.3549805,202.642807 L138.3549805,209.0427094 L136.8193359,209.0427094 L136.8193359,200.061264 Z M152.0263672,208.1545258 C151.4287109,208.858017 150.5519409,209.208725 149.3950195,209.208725 C148.4378357,209.208725 147.7089233,208.9311676 147.2077637,208.3750153 C146.7071228,207.8188629 146.453949,206.9955292 146.4482422,205.905014 L146.4482422,200.061264 L147.9838867,200.061264 L147.9838867,205.8635101 C147.9838867,207.2253571 148.5374451,207.9060211 149.644043,207.9055023 C150.8175659,207.9060211 151.5978394,207.4686737 151.9848633,206.5939789 L151.9848633,200.061264 L153.5205078,200.061264 L153.5205078,209.0427094 L152.0595703,209.0427094 Z M157.5795898,200.061264 L157.6210938,201.0573578 C158.2799683,200.2833099 159.1681519,199.8957672 160.2856445,199.8952484 C161.5421753,199.8957672 162.3971558,200.3772125 162.8505859,201.3395844 C163.1494141,200.9084625 163.5385132,200.5598297 164.0168457,200.2942047 C164.495697,200.0285797 165.0617065,199.8957672 165.7143555,199.8952484 C167.6847534,199.8957672 168.6860352,200.9390717 168.7192383,203.0246429 L168.7192383,209.0427094 L167.1835938,209.0427094 L167.1835938,203.1159515 C167.1835938,202.4747162 167.0372925,201.9948273 166.7436523,201.6762848 C166.450531,201.3582611 165.9581909,201.1989899 165.2661133,201.1984711 C164.6964722,201.1989899 164.2233276,201.3691559 163.8466797,201.7094879 C163.4705505,202.0498199 163.2521362,202.5079193 163.190918,203.0827484 L163.190918,209.0427094 L161.6469727,209.0427094 L161.6469727,203.1574554 C161.6469727,201.8521576 161.0078125,201.1989899 159.7294922,201.1984711 C158.7225037,201.1989899 158.0335388,201.6280365 157.6625977,202.4850922 L157.6625977,209.0427094 L156.1269531,209.0427094 L156.1269531,200.061264 Z" style="fill:rgb(255,255,255);stroke:none" clip-path="url(#clip8)" />
<clipPath id="clip9"><path d="M69,190 L172,190 L172,237 L69,237 L69,190 Z" /></clipPath>
<path d="M98.2331543,224.170166 C98.2331543,225.5429077 97.9177246,226.645874 97.2868652,227.4785461 C96.6560059,228.3117371 95.8093262,228.7272949 94.7468262,228.7272949 C93.6127319,228.7272949 92.7354431,228.3267822 92.1154785,227.5236816 L92.0407715,228.5612793 L90.6296387,228.5612793 L90.6296387,215.8112793 L92.1652832,215.8112793 L92.1652832,220.567627 C92.7852478,219.7987671 93.6402283,219.4143372 94.7302246,219.4143372 C95.8207397,219.4143372 96.6767578,219.8267822 97.2993164,220.6511536 C97.921875,221.4760437 98.2331543,222.6044312 98.2331543,224.0373535 Z M96.6975098,223.9958496 C96.6975098,222.95047 96.495697,222.1427002 96.0915527,221.5725403 C95.6879272,221.0028992 95.1068726,220.7175598 94.3483887,220.717041 C93.3356934,220.7175598 92.6083374,221.1881104 92.1652832,222.1281738 L92.1652832,226.0129395 C92.6358337,226.9540405 93.3688965,227.4245911 94.3649902,227.4240723 C95.1011658,227.4245911 95.6739197,227.1397705 96.083252,226.5696106 C96.493103,225.9999695 96.6975098,225.1418762 96.6975098,223.9958496 Z M103.3879395,226.3117676 L105.4797363,219.579834 L107.123291,219.579834 L103.5124512,229.9475098 C102.9537048,231.4416504 102.0655212,232.1887207 100.8479004,232.1887207 L100.557373,232.1638184 L99.9846191,232.0559082 L99.9846191,230.810791 L100.3996582,230.8439941 C100.9200134,230.8439941 101.3251953,230.7391968 101.6157227,230.5285645 C101.90625,230.3184509 102.1459351,229.934021 102.3337402,229.3747559 L102.6740723,228.4616699 L99.4699707,219.579834 L101.1467285,219.579834 Z M110.8171387,217.4050293 L110.8171387,219.579834 L112.4938965,219.579834 L112.4938965,220.7668457 L110.8171387,220.7668457 L110.8171387,226.3439331 C110.8171387,226.7044983 110.8918457,226.9747925 111.0412598,227.1542969 C111.1906738,227.3348389 111.4454041,227.4245911 111.8049316,227.4240723 C111.9823608,227.4245911 112.2256775,227.3913879 112.5354004,227.3244629 L112.5354004,228.5623169 C112.1317749,228.6723022 111.7385254,228.7272949 111.3566895,228.7272949 C110.6708374,228.7272949 110.1530762,228.5202942 109.8044434,228.1052551 C109.4558105,227.6902161 109.2814941,227.1008606 109.2814941,226.3366699 L109.2814941,220.7668457 L107.6462402,220.7668457 L107.6462402,219.579834 L109.2814941,219.579834 L109.2814941,217.4050293 Z M118.1799316,228.7272949 C116.9628296,228.7272949 115.9719238,228.3283386 115.208252,227.5283508 C114.4445801,226.7288818 114.0627441,225.6591187 114.0627441,224.3195801 L114.0627441,224.0373535 C114.0627441,223.1470947 114.2329102,222.3517761 114.5732422,221.6513977 C114.9135742,220.9515381 115.3898315,220.4036865 116.0009766,220.007843 C116.6126404,219.6125183 117.2751465,219.4143372 117.9890137,219.4138184 C119.1568298,219.4143372 120.064209,219.7992859 120.7116699,220.5681458 C121.3591309,221.3375244 121.6828613,222.4384155 121.6828613,223.8713379 L121.6828613,224.510498 L115.5983887,224.510498 C115.620697,225.3966064 115.8795776,226.11203 116.3745117,226.6567688 C116.8699646,227.2020264 117.4992676,227.4743958 118.2629395,227.473877 C118.805603,227.4743958 119.26474,227.3638916 119.6408691,227.1423645 C120.0175171,226.9213562 120.3464355,226.6277161 120.6286621,226.2619629 L121.5666504,226.9924316 C120.8143921,228.149353 119.6854858,228.7272949 118.1799316,228.7272949 Z M117.9890137,220.6755371 C117.3695679,220.6760559 116.8492126,220.9017334 116.4284668,221.3525696 C116.0082397,221.8039246 115.7478027,222.4358215 115.6481934,223.2487793 L120.1472168,223.2487793 L120.1472168,223.1325684 C120.1031189,222.3528137 119.8930054,221.7484131 119.5163574,221.3193665 C119.1402283,220.8908386 118.6312866,220.6760559 117.9890137,220.6755371 Z M135.4870605,223.4064941 C135.4870605,225.2056885 135.1799316,226.5421143 134.5656738,227.4162903 C133.951416,228.2909851 132.9916382,228.7272949 131.6853027,228.7272949 C130.3960876,228.7272949 129.4414978,228.3003235 128.8215332,227.445343 C128.2020874,226.5903625 127.8809509,225.3135986 127.8586426,223.6140137 L127.8586426,221.5637207 C127.8586426,219.7878723 128.1657715,218.4680481 128.7800293,217.6047668 C129.3942871,216.7414856 130.3571777,216.309845 131.6687012,216.3093262 C132.9693298,216.309845 133.9265137,216.7264404 134.5407715,217.5591125 C135.1550293,218.3923035 135.470459,219.6773682 135.4870605,221.4143066 Z M133.951416,221.3063965 C133.951416,220.0062866 133.7687988,219.05896 133.4035645,218.4638977 C133.0383301,217.8693542 132.4603882,217.5715637 131.6687012,217.5710449 C130.8832397,217.5715637 130.3104858,217.8677979 129.9504395,218.4597473 C129.5909119,219.0522156 129.4057007,219.9621887 129.3942871,221.1901855 L129.3942871,223.6472168 C129.3942871,224.9535522 129.5841675,225.9179993 129.9628906,226.5405579 C130.3421326,227.1631165 130.9164429,227.4743958 131.6853027,227.473877 C132.4437866,227.4743958 133.0066833,227.1812744 133.3745117,226.5945129 C133.7428589,226.0082703 133.9348145,225.0837708 133.951416,223.8215332 Z M141.0900879,224.0539551 L137.0393066,224.0539551 L137.0393066,222.8005371 L141.0900879,222.8005371 Z M150.3703613,217.338623 L145.3649902,228.5612793 L143.7546387,228.5612793 L148.7434082,217.7370605 L142.2023926,217.7370605 L142.2023926,216.4753418 L150.3703613,216.4753418 Z" style="fill:rgb(255,255,255);stroke:none" clip-path="url(#clip9)" />
<clipPath id="clip10"><path d="M15,290 L123,290 L123,383 L15,383 Z M87,308.5 C87,298.2827148 78.7172623,290 68.4999847,290 C58.2827225,290 49.9999924,298.2827148 50,308.5 C50,318.7172546 58.2827377,327 68.5000229,326.9999695 C78.7172852,326.9999695 87.0000076,318.7172241 87,308.4999695 Z" /></clipPath>
<path d="M69,341 C68.7185974,342.777771 68.5778885,345.4444275 68.5778885,349" style="fill:none;stroke:rgb(85,142,213)" clip-path="url(#clip10)" />
<clipPath id="clip11"><path d="M14,289 L124,289 L124,384 L14,384 L14,289 Z" /></clipPath>
<path d="M69,328 L69,341" style="fill:none;stroke:rgb(89,89,89)" clip-path="url(#clip11)" />
<clipPath id="clip12"><path d="M49,289 L89,289 L89,329 L49,329 L49,289 Z" /></clipPath>
<path d="M87,308.5 C87,298.2827148 78.7172623,290 68.4999847,290 C58.2827225,290 49.9999924,298.2827148 50,308.5 C50,318.7172546 58.2827377,327 68.5000229,326.9999695 C78.7172852,326.9999695 87.0000076,318.7172241 87,308.4999695 Z" style="fill:rgb(89,89,89);stroke:none" clip-path="url(#clip12)" />
<clipPath id="clip13"><path d="M61,296 L77,296 L77,322 L61,322 L61,296 Z" /></clipPath>
<path d="M70.9448395,315.1176758 L69.0906525,315.1176758 L69.0906525,305.0872192 L66.0551605,306.2026367 L66.0551605,304.553894 L70.5090485,302.8823242 L70.9448395,302.8823242 Z" style="fill:rgb(255,255,255);stroke:none" clip-path="url(#clip13)" />
<clipPath id="clip14"><path d="M14,346 L124,346 L124,384 L14,384 L14,346 Z" /></clipPath>
<path d="M20,349 C18.3431473,349 17,350.3431396 17,352 L17,377 C17,378.6568604 18.3431473,380 20,380 L117,380 C118.6568527,380 120,378.6568604 120,377 L120,352 C120,350.3431396 118.6568527,349 117,349 Z" style="fill:rgb(67,160,71);stroke:none" clip-path="url(#clip14)" />
<clipPath id="clip15"><path d="M14,346 L124,346 L124,384 L14,384 L14,346 Z" /></clipPath>
<path d="M20,349 C18.3431473,349 17,350.3431396 17,352 L17,377 C17,378.6568604 18.3431473,380 20,380 L117,380 C118.6568527,380 120,378.6568604 120,377 L120,352 C120,350.3431396 118.6568527,349 117,349 Z" style="fill:none;stroke:rgb(67,160,71);stroke-width:4" clip-path="url(#clip15)" />
<clipPath id="clip16"><path d="M28,352 L110,352 L110,378 L28,378 L28,352 Z" /></clipPath>
<path d="M36.9653397,368.9262695 L40.4184647,358.9570313 L42.1616287,358.9570313 L37.6792068,371.0429688 L36.268074,371.0429688 L31.7939529,358.9570313 L33.5288162,358.9570313 Z M45.5317459,371.0429688 L43.9961014,371.0429688 L43.9961014,362.0615234 L45.5317459,362.0615234 Z M43.8715897,359.6791992 C43.8715897,359.4306946 43.9478531,359.2205811 44.0998611,359.0488586 C44.252388,358.877655 44.4775467,358.7915344 44.7763748,358.7915344 C45.0752029,358.7915344 45.3024368,358.877655 45.4570389,359.0488586 C45.6121597,359.2205811 45.6894608,359.4306946 45.6894608,359.679718 C45.6894608,359.9287415 45.6121597,360.136261 45.4570389,360.3022766 C45.3024368,360.4682922 45.0752029,360.5513 44.7763748,360.5513 C44.4775467,360.5513 44.252388,360.4682922 44.0998611,360.3022766 C43.9478531,360.136261 43.8715897,359.9287415 43.8715897,359.6791992 Z M53.3427811,368.6606445 C53.3427811,368.2461243 53.1866226,367.9239502 52.8737869,367.6941223 C52.56147,367.4648132 52.0162125,367.2666321 51.238533,367.1006165 C50.4613724,366.9346008 49.8440018,366.7353821 49.3874588,366.5029602 C48.9309158,366.2705383 48.5936966,365.9940186 48.3747635,365.6728821 C48.1563492,365.3522644 48.0468826,364.9699097 48.0468826,364.5268555 C48.0468826,363.7911987 48.3581619,363.1691589 48.9807205,362.6596985 C49.6032791,362.1507568 50.3991165,361.8960266 51.3671951,361.8955078 C52.3855972,361.8960266 53.211525,362.1590576 53.8449783,362.6846008 C54.4789505,363.2106628 54.7954178,363.8825073 54.7954178,364.7011719 L53.2514725,364.7011719 C53.2514725,364.2809448 53.0730057,363.9188232 52.7160721,363.6142883 C52.3591385,363.3102722 51.9098587,363.1577454 51.3671951,363.1572266 C50.8084488,363.1577454 50.3711014,363.2796631 50.0556717,363.5229797 C49.740242,363.7668152 49.5825272,364.0848389 49.5825272,364.4770508 C49.5825272,364.8485107 49.7293472,365.1281433 50.0224686,365.3159485 C50.3161087,365.5042725 50.8458023,365.6842957 51.6120682,365.8554993 C52.3788528,366.0272217 52.999855,366.2321472 53.4755936,366.4697571 C53.9518509,366.7078857 54.3046341,366.9942627 54.5339432,367.3288879 C54.7637711,367.664032 54.8784256,368.0718079 54.8784256,368.5527344 C54.8784256,369.355835 54.5578079,369.9991455 53.915535,370.4831848 C53.2737808,370.9677429 52.4411087,371.2089844 51.4169998,371.2089844 C50.6979446,371.2089844 50.0613785,371.0818787 49.5078201,370.8276672 C48.9547806,370.5734558 48.5215836,370.2175598 48.2087479,369.7610168 C47.896431,369.3044739 47.7397537,368.8105774 47.7397537,368.2788086 L49.2753983,368.2788086 C49.3034134,368.7939758 49.5093765,369.2022705 49.8938065,369.5036926 C50.2787552,369.8056335 50.7861404,369.9560852 51.4169998,369.9555664 C51.9980545,369.9560852 52.4644547,369.8388367 52.8156815,369.603302 C53.1674271,369.3682861 53.3427811,369.053894 53.3427811,368.6606445 Z M59.228035,359.8867188 L59.228035,362.0615234 L60.9047928,362.0615234 L60.9047928,363.2485352 L59.228035,363.2485352 L59.228035,368.8256226 C59.228035,369.1861877 59.302742,369.4564819 59.4521561,369.6359863 C59.6015701,369.8165283 59.8563004,369.9062805 60.2158279,369.9057617 C60.3932571,369.9062805 60.6365738,369.8730774 60.9462967,369.8061523 L60.9462967,371.0440063 C60.5426712,371.1539917 60.1494217,371.2089844 59.7675858,371.2089844 C59.0817337,371.2089844 58.5639725,371.0019836 58.2153397,370.5869446 C57.8667068,370.1719055 57.6923904,369.58255 57.6923904,368.8183594 L57.6923904,363.2485352 L56.0571365,363.2485352 L56.0571365,362.0615234 L57.6923904,362.0615234 L57.6923904,359.8867188 Z M68.408699,371.0429688 C68.3205032,370.8665771 68.2483902,370.5511475 68.1928787,370.0966797 C67.4790115,370.838562 66.6271439,371.2089844 65.6362381,371.2089844 C64.7511673,371.2089844 64.0248489,370.9594421 63.457283,370.4582825 C62.8902359,369.9576416 62.6064529,369.3226318 62.6064529,368.5527344 C62.6064529,367.6178589 62.9623489,366.8920593 63.6731033,366.3742981 C64.3843765,365.8570557 65.3846207,365.598175 66.6738358,365.5976563 L68.1679764,365.5976563 L68.1679764,364.8920898 C68.1679764,364.3556519 68.0076675,363.9286804 67.6865311,363.6101379 C67.3659134,363.2921143 66.8927689,363.132843 66.2670975,363.1323242 C65.7192459,363.132843 65.2601089,363.2713623 64.8891678,363.5478821 C64.5187454,363.8249207 64.3330154,364.1595459 64.3330154,364.5517578 L62.7890701,364.5517578 C62.7890701,364.1040344 62.9483414,363.6713562 63.2663651,363.2532043 C63.5849075,362.8355713 64.0165482,362.5050964 64.5612869,362.261261 C65.1065445,362.0179443 65.7057571,361.8960266 66.3584061,361.8955078 C67.3934097,361.8960266 68.2042923,362.1549072 68.790535,362.6721497 C69.3772964,363.1899109 69.6818314,363.9022217 69.7036209,364.809082 L69.7036209,368.9428711 C69.7036209,369.7677612 69.8089371,370.4235229 70.0190506,370.9101563 L70.0190506,371.0429688 Z M65.8603592,369.8725586 C66.3418045,369.8730774 66.7983475,369.7485657 67.2299881,369.4995422 C67.6616287,369.2505188 67.9744644,368.9267883 68.1679764,368.527832 L68.1679764,366.6850586 L66.9643631,366.6850586 C65.0831985,366.6855774 64.1420975,367.2360229 64.1420975,368.3369141 C64.1420975,368.8188782 64.3029251,369.1955261 64.6235428,369.4663391 C64.9446793,369.7376709 65.3571243,369.8730774 65.8603592,369.8725586 Z M79.9135818,366.5356445 L75.8628006,366.5356445 L75.8628006,365.2822266 L79.9135818,365.2822266 Z M93.0537186,362.1113281 C93.0537186,362.71521 92.8949661,363.2521667 92.5764236,363.7221985 C92.2584,364.192749 91.8283157,364.5605774 91.2856522,364.8256836 C91.9165115,365.0975342 92.4161148,365.4933777 92.7839432,366.0132141 C93.1522903,366.5335693 93.3359451,367.1229248 93.3359451,367.7807617 C93.3359451,368.827179 92.9831619,369.6603699 92.2775955,370.2798157 C91.5720291,370.8997803 90.643898,371.2089844 89.4926834,371.2089844 C88.330574,371.2089844 87.3998489,370.8982239 86.6994705,370.2756653 C85.9996109,369.6531067 85.6494217,368.8214722 85.6494217,367.7807617 C85.6494217,367.1281128 85.8278885,366.5392761 86.1848221,366.0132141 C86.5417557,365.4876709 87.0356522,365.0892334 87.6665115,364.8173828 C87.1300735,364.5522766 86.7067337,364.1844482 86.396492,363.7138977 C86.0867691,363.243866 85.9316483,362.7095032 85.9316483,362.1113281 C85.9316483,361.0934448 86.2584915,360.285675 86.9111404,359.6880188 C87.5643082,359.0903625 88.4249954,358.7915344 89.4926834,358.7910156 C90.5551834,358.7915344 91.4143143,359.0903625 92.070076,359.6880188 C92.7258377,360.285675 93.0537186,361.0934448 93.0537186,362.1113281 Z M91.8003006,367.7475586 C91.8003006,367.0731201 91.5860367,366.5226746 91.1569901,366.0962219 C90.7284622,365.6702881 90.1681595,365.4570618 89.4760818,365.4570618 C88.784523,365.4570618 88.2299271,365.6676941 87.8117752,366.0879211 C87.3941422,366.508667 87.1850662,367.0622253 87.1850662,367.7480774 C87.1850662,368.4344482 87.3884354,368.973999 87.7951736,369.3667297 C88.2019119,369.7599792 88.7679214,369.9560852 89.4926834,369.9555664 C90.2122574,369.9560852 90.7767105,369.7584229 91.1860428,369.3625793 C91.5958939,368.9672546 91.8003006,368.4287415 91.8003006,367.7475586 Z M89.4926834,360.0527344 C88.8898392,360.0532532 88.4011307,360.2400208 88.0275955,360.6135559 C87.6540604,360.9870911 87.4672928,361.4949951 87.4672928,362.1362305 C87.4672928,362.7510071 87.6514664,363.2480164 88.0192947,363.6267395 C88.3876419,364.0059814 88.8784256,364.195343 89.4926834,364.195343 C90.1069412,364.195343 90.5982437,364.0059814 90.9660721,363.6267395 C91.3344193,363.2480164 91.518074,362.7510071 91.518074,362.1367493 C91.518074,361.5224915 91.3271561,361.0218506 90.9453201,360.6343079 C90.5634842,360.2472839 90.0794449,360.0532532 89.4926834,360.0527344 Z M95.7431717,370.237793 C95.7431717,369.9726868 95.8220291,369.7516785 95.979744,369.5742493 C96.1374588,369.3973389 96.3740311,369.3086243 96.6894608,369.3086243 C97.0048904,369.3086243 97.2445755,369.3973389 97.4074783,369.5742493 C97.5709,369.7516785 97.6523514,369.9726868 97.6523514,370.237793 C97.6523514,370.493042 97.5709,370.7062683 97.4074783,370.8774719 C97.2445755,371.0486755 97.0048904,371.1342773 96.6894608,371.1342773 C96.3740311,371.1342773 96.1374588,371.0486755 95.979744,370.8774719 C95.8220291,370.7062683 95.7431717,370.493042 95.7431717,370.237793 Z M105.2060623,371.0429688 L103.662117,371.0429688 L103.662117,360.8081055 L100.5659256,361.9453125 L100.5659256,360.5507813 L104.9653397,358.8989258 L105.2060623,358.8989258 Z" style="fill:rgb(255,255,255);stroke:none" clip-path="url(#clip16)" />
<clipPath id="clip17"><path d="M124,290 L225,290 L225,383 L124,383 Z M192,308.5 C192,298.2827148 183.7172546,290 173.4999847,290 C163.2827148,290 155,298.2827148 155,308.5 C155,318.7172546 163.2827454,327 173.5000305,326.9999695 C183.7172852,326.9999695 192,318.7172241 192,308.4999695 Z" /></clipPath>
<path d="M174,341 C174,342.777771 174,345.4444275 174,349" style="fill:none;stroke:rgb(85,142,213)" clip-path="url(#clip17)" />
<clipPath id="clip18"><path d="M123,289 L226,289 L226,384 L123,384 L123,289 Z" /></clipPath>
<path d="M174,328 L174,341" style="fill:none;stroke:rgb(89,89,89)" clip-path="url(#clip18)" />
<clipPath id="clip19"><path d="M154,289 L194,289 L194,329 L154,329 L154,289 Z" /></clipPath>
<path d="M192,308.5 C192,298.2827148 183.7172546,290 173.4999847,290 C163.2827148,290 155,298.2827148 155,308.5 C155,318.7172546 163.2827454,327 173.5000305,326.9999695 C183.7172852,326.9999695 192,318.7172241 192,308.4999695 Z" style="fill:rgb(89,89,89);stroke:none" clip-path="url(#clip19)" />
<clipPath id="clip20"><path d="M166,296 L182,296 L182,322 L166,322 L166,296 Z" /></clipPath>
<path d="M177.666214,315.1716309 L169.5615387,315.1716309 L169.5615387,313.861145 L173.7046661,309.257843 C174.3012848,308.5818481 174.7111359,308.035553 174.9331818,307.6194763 C175.1557465,307.2039185 175.2667694,306.7800598 175.2667694,306.3473816 C175.2667694,305.7746277 175.095047,305.3061523 174.7516022,304.9424744 C174.4081573,304.5793152 173.9490204,304.3977356 173.3736725,304.3972168 C172.6748505,304.3977356 172.1342621,304.5938416 171.7524261,304.9855347 C171.3705902,305.3777466 171.1796722,305.9873352 171.1796722,306.8148193 L169.333786,306.8148193 C169.333786,305.5660706 169.7016144,304.5896912 170.4367523,303.8851624 C171.1724091,303.1811523 172.1513824,302.8288879 173.3736725,302.8283691 C174.5191803,302.8288879 175.4296722,303.1344604 176.1061859,303.7445679 C176.7826996,304.3557129 177.1209564,305.1634827 177.1209564,306.168396 C177.1209564,307.3782349 176.3624725,308.8049316 174.8444672,310.4490051 L171.716629,313.611084 L177.666214,313.611084 Z" style="fill:rgb(255,255,255);stroke:none" clip-path="url(#clip20)" />
<clipPath id="clip21"><path d="M123,346 L226,346 L226,384 L123,384 L123,346 Z" /></clipPath>
<path d="M129,349 C127.3431473,349 126,350.3431396 126,352 L126,377 C126,378.6568604 127.3431473,380 129,380 L219,380 C220.6568604,380 222,378.6568604 222,377 L222,352 C222,350.3431396 220.6568604,349 219,349 Z" style="fill:rgb(67,160,71);stroke:none" clip-path="url(#clip21)" />
<clipPath id="clip22"><path d="M123,346 L226,346 L226,384 L123,384 L123,346 Z" /></clipPath>
<path d="M129,349 C127.3431473,349 126,350.3431396 126,352 L126,377 C126,378.6568604 127.3431473,380 129,380 L219,380 C220.6568604,380 222,378.6568604 222,377 L222,352 C222,350.3431396 220.6568604,349 219,349 Z" style="fill:none;stroke:rgb(67,160,71);stroke-width:4" clip-path="url(#clip22)" />
<clipPath id="clip23"><path d="M137,352 L212,352 L212,378 L137,378 L137,352 Z" /></clipPath>
<path d="M151.6584473,367.2329102 L151.8908691,368.8266602 L152.2312012,367.390625 L154.6218262,358.9570313 L155.9665527,358.9570313 L158.2990723,367.390625 L158.6311035,368.8515625 L158.8884277,367.2246094 L160.7644043,358.9570313 L162.3664551,358.9570313 L159.4362793,371.0429688 L157.9836426,371.0429688 L155.4934082,362.2358398 L155.3024902,361.3144531 L155.1115723,362.2358398 L152.5300293,371.0429688 L151.0773926,371.0429688 L148.1555176,358.9570313 L149.7492676,358.9570313 Z M166.0187988,371.0429688 L164.4831543,371.0429688 L164.4831543,362.0615234 L166.0187988,362.0615234 Z M164.3586426,359.6791992 C164.3586426,359.4306946 164.434906,359.2205811 164.5869141,359.0488586 C164.7394409,358.877655 164.9645996,358.7915344 165.2634277,358.7915344 C165.5622559,358.7915344 165.7894897,358.877655 165.9440918,359.0488586 C166.0992126,359.2205811 166.1765137,359.4306946 166.1765137,359.679718 C166.1765137,359.9287415 166.0992126,360.136261 165.9440918,360.3022766 C165.7894897,360.4682922 165.5622559,360.5513 165.2634277,360.5513 C164.9645996,360.5513 164.7394409,360.4682922 164.5869141,360.3022766 C164.434906,360.136261 164.3586426,359.9287415 164.3586426,359.6791992 Z M170.0529785,362.0615234 L170.1027832,363.1904297 C170.7891541,362.3276672 171.6856384,361.8960266 172.7922363,361.8955078 C174.6905212,361.8960266 175.6477051,362.9668274 175.6643066,365.1079102 L175.6643066,371.0429688 L174.1286621,371.0429688 L174.1286621,365.0996094 C174.1234741,364.4526672 173.9750977,363.9743347 173.6845703,363.664093 C173.394043,363.3543701 172.9416504,363.1992493 172.3273926,363.1987305 C171.8293457,363.1992493 171.3925171,363.3320618 171.0158691,363.5976868 C170.63974,363.8633118 170.3466187,364.2119446 170.1359863,364.6430664 L170.1359863,371.0429688 L168.6003418,371.0429688 L168.6003418,362.0615234 Z M187.4846191,371.0429688 L185.9406738,371.0429688 L185.9406738,360.8081055 L182.8444824,361.9453125 L182.8444824,360.5507813 L187.2438965,358.8989258 L187.4846191,358.8989258 Z M199.8444824,365.8881836 C199.8444824,367.6873779 199.5373535,369.0238037 198.9230957,369.8979797 C198.3088379,370.7726746 197.3490601,371.2089844 196.0427246,371.2089844 C194.7535095,371.2089844 193.7989197,370.7820129 193.1789551,369.9270325 C192.5595093,369.072052 192.2383728,367.7952881 192.2160645,366.0957031 L192.2160645,364.0454102 C192.2160645,362.2695618 192.5231934,360.9497375 193.1374512,360.0864563 C193.751709,359.223175 194.7145996,358.7915344 196.026123,358.7910156 C197.3267517,358.7915344 198.2839355,359.2081299 198.8981934,360.040802 C199.5124512,360.8739929 199.8278809,362.1590576 199.8444824,363.8959961 Z M198.3088379,363.7880859 C198.3088379,362.4879761 198.1262207,361.5406494 197.7609863,360.9455872 C197.395752,360.3510437 196.8178101,360.0532532 196.026123,360.0527344 C195.2406616,360.0532532 194.6679077,360.3494873 194.3078613,360.9414368 C193.9483337,361.533905 193.7631226,362.4438782 193.751709,363.671875 L193.751709,366.1289063 C193.751709,367.4352417 193.9415894,368.3996887 194.3203125,369.0222473 C194.6995544,369.6448059 195.2738647,369.9560852 196.0427246,369.9555664 C196.8012085,369.9560852 197.3641052,369.6629639 197.7319336,369.0762024 C198.1002808,368.4899597 198.2922363,367.5654602 198.3088379,366.3032227 Z" style="fill:rgb(255,255,255);stroke:none" clip-path="url(#clip23)" />
<clipPath id="clip24"><path d="M259,190 L331,190 L331,236 L259,236 L259,190 Z" /></clipPath>
<path d="M329,212.4999847 C329,200.6258698 313.553833,190.9999847 294.4999695,191 C275.446167,191 260,200.625885 260,212.5 C260,224.374115 275.446167,234 294.5000305,233.9999847 C313.5538635,233.9999695 329,224.3740845 329,212.4999695 Z" style="fill:rgb(89,89,89);stroke:none" clip-path="url(#clip24)" />
<clipPath id="clip25"><path d="M272,200 L318,200 L318,226 L272,226 L272,200 Z" /></clipPath>
<path d="M274.8105469,214.7182617 C274.8105469,213.8388977 274.9838257,213.0477295 275.3293457,212.3447571 C275.675415,211.6423035 276.1568604,211.0996399 276.7736816,210.717804 C277.3910522,210.335968 278.0950928,210.14505 278.8862305,210.1445313 C280.1095581,210.14505 281.0983887,210.5683899 281.8537598,211.4150696 C282.6091309,212.2617493 282.9868164,213.3880615 282.9868164,214.7929688 L282.9868164,214.9008789 C282.9868164,215.7755737 282.8197632,216.5605164 282.4846191,217.2546692 C282.1500244,217.9493408 281.6711426,218.490448 281.048584,218.8774719 C280.4260254,219.2650146 279.7111206,219.4580078 278.902832,219.4580078 C277.68573,219.4580078 276.6989746,219.0351868 275.9436035,218.1885071 C275.1882324,217.3418274 274.8105469,216.2212219 274.8105469,214.8261719 Z M276.3544922,214.9008789 C276.3544922,215.8974915 276.5858765,216.6974792 277.0476074,217.3003235 C277.5098877,217.9036865 278.1282959,218.2051086 278.902832,218.2045898 C279.6831055,218.2051086 280.3031006,217.8995361 280.762207,217.2878723 C281.2218628,216.6767273 281.4511719,215.8201904 281.4511719,214.7182617 C281.4511719,213.7335815 281.2177124,212.9356689 280.7497559,212.3240051 C280.2823486,211.7128601 279.6613159,211.4067688 278.8862305,211.40625 C278.1282959,211.4067688 277.5166016,211.7087097 277.0517578,212.311554 C276.5869141,212.914917 276.3544922,213.7781982 276.3544922,214.9008789 Z M287.2866211,208.1357422 L287.2866211,210.3105469 L288.9633789,210.3105469 L288.9633789,211.4975586 L287.2866211,211.4975586 L287.2866211,217.074646 C287.2866211,217.4352112 287.3613281,217.7055054 287.5107422,217.8850098 C287.6601563,218.0655518 287.914917,218.155304 288.2744141,218.1547852 C288.4518433,218.155304 288.6951904,218.1221008 289.0048828,218.0551758 L289.0048828,219.2930298 C288.6012573,219.4030151 288.2080078,219.4580078 287.8261719,219.4580078 C287.1403198,219.4580078 286.6225586,219.2510071 286.2739258,218.835968 C285.925293,218.420929 285.7509766,217.8315735 285.7509766,217.0673828 L285.7509766,211.4975586 L284.1157227,211.4975586 L284.1157227,210.3105469 L285.7509766,210.3105469 L285.7509766,208.1357422 Z M292.4580078,211.3979492 C293.1386719,210.5626831 294.024292,210.14505 295.1142578,210.1445313 C297.0125732,210.14505 297.9697266,211.2158508 297.9863281,213.3569336 L297.9863281,219.2919922 L296.4506836,219.2919922 L296.4506836,213.3486328 C296.4454956,212.7016907 296.2971191,212.2233582 296.0065918,211.9131165 C295.7160645,211.6033936 295.2636719,211.4482727 294.6494141,211.4477539 C294.1513672,211.4482727 293.7145386,211.5810852 293.3378906,211.8467102 C292.961792,212.1123352 292.6686401,212.460968 292.4580078,212.8920898 L292.4580078,219.2919922 L290.9223633,219.2919922 L290.9223633,206.5419922 L292.4580078,206.5419922 Z M304.2949219,219.4580078 C303.0778198,219.4580078 302.0869141,219.0590515 301.3232422,218.2590637 C300.5595703,217.4595947 300.1777344,216.3898315 300.1777344,215.050293 L300.1777344,214.7680664 C300.1777344,213.8778076 300.3479004,213.082489 300.6882324,212.3821106 C301.0285645,211.682251 301.5048218,211.1343994 302.1159668,210.7385559 C302.7276611,210.3432312 303.3901367,210.14505 304.1040039,210.1445313 C305.2718506,210.14505 306.1791992,210.5299988 306.8266602,211.2988586 C307.4741211,212.0682373 307.7978516,213.1691284 307.7978516,214.6020508 L307.7978516,215.2412109 L301.7133789,215.2412109 C301.7357178,216.1273193 301.9945679,216.8427429 302.489502,217.3874817 C302.9849854,217.9327393 303.6142578,218.2051086 304.3779297,218.2045898 C304.9205933,218.2051086 305.3797607,218.0946045 305.7558594,217.8730774 C306.1325073,217.6520691 306.4614258,217.358429 306.7436523,216.9926758 L307.6816406,217.7231445 C306.9293823,218.8800659 305.8004761,219.4580078 304.2949219,219.4580078 Z M304.1040039,211.40625 C303.4845581,211.4067688 302.9642334,211.6324463 302.543457,212.0832825 C302.12323,212.5346375 301.862793,213.1665344 301.7631836,213.9794922 L306.262207,213.9794922 L306.262207,213.8632813 C306.2181396,213.0835266 306.0079956,212.479126 305.6313477,212.0500793 C305.255249,211.6215515 304.7462769,211.4067688 304.1040039,211.40625 Z M314.1894531,211.6884766 C313.9570313,211.6500854 313.7054443,211.6308899 313.434082,211.6303711 C312.427124,211.6308899 311.7438354,212.0599365 311.3837891,212.9169922 L311.3837891,219.2919922 L309.8481445,219.2919922 L309.8481445,210.3105469 L311.3422852,210.3105469 L311.3671875,211.3481445 C311.8709717,210.5460815 312.5848389,210.14505 313.5087891,210.1445313 C313.8076172,210.14505 314.0348511,210.18396 314.1894531,210.2607422 Z" style="fill:rgb(255,255,255);stroke:none" clip-path="url(#clip25)" />
<clipPath id="clip26"><path d="M261,345 L329,345 L329,385 L261,385 L261,345 Z" /></clipPath>
<path d="M270,346 C265.5817261,346 262,349.5817261 262,354 L262,375 C262,379.4182739 265.5817261,383 270,383 L319,383 C323.4182739,383 327,379.4182739 327,375 L327,354 C327,349.5817261 323.4182739,346 319,346 Z" style="fill:rgb(255,3,3);stroke:none" clip-path="url(#clip26)" />
<clipPath id="clip27"><path d="M273,352 L317,352 L317,378 L273,378 L273,352 Z" /></clipPath>
<path d="M283.3852539,365.3735352 L278.1474609,365.3735352 L278.1474609,369.6567383 L284.2319336,369.6567383 L284.2319336,370.9599609 L276.5537109,370.9599609 L276.5537109,358.8740234 L284.1489258,358.8740234 L284.1489258,360.1772461 L278.1474609,360.1772461 L278.1474609,364.0703125 L283.3852539,364.0703125 Z M290.6069336,363.3564453 C290.3745117,363.3180542 290.1229248,363.2988586 289.8515625,363.2983398 C288.8446045,363.2988586 288.1613159,363.7279053 287.8012695,364.5849609 L287.8012695,370.9599609 L286.265625,370.9599609 L286.265625,361.9785156 L287.7597656,361.9785156 L287.784668,363.0161133 C288.2884521,362.2140503 289.0023193,361.8130188 289.9262695,361.8125 C290.2250977,361.8130188 290.4523315,361.8519287 290.6069336,361.9287109 Z M296.5336914,363.3564453 C296.3012695,363.3180542 296.0496826,363.2988586 295.7783203,363.2983398 C294.7713623,363.2988586 294.0880737,363.7279053 293.7280273,364.5849609 L293.7280273,370.9599609 L292.1923828,370.9599609 L292.1923828,361.9785156 L293.6865234,361.9785156 L293.7114258,363.0161133 C294.21521,362.2140503 294.9290771,361.8130188 295.8530273,361.8125 C296.1518555,361.8130188 296.3790894,361.8519287 296.5336914,361.9287109 Z M297.7124023,366.3862305 C297.7124023,365.5068665 297.8856812,364.7156982 298.2312012,364.0127258 C298.5772705,363.3102722 299.0587158,362.7676086 299.6755371,362.3857727 C300.2929077,362.0039368 300.9969482,361.8130188 301.7880859,361.8125 C303.0114136,361.8130188 304.0002441,362.2363586 304.7556152,363.0830383 C305.5109863,363.929718 305.8886719,365.0560303 305.8886719,366.4609375 L305.8886719,366.5688477 C305.8886719,367.4435425 305.7216187,368.2284851 305.3864746,368.9226379 C305.0518799,369.6173096 304.572998,370.1584167 303.9504395,370.5454407 C303.3278809,370.9329834 302.6129761,371.1259766 301.8046875,371.1259766 C300.5875854,371.1259766 299.6008301,370.7031555 298.845459,369.8564758 C298.0900879,369.0097961 297.7124023,367.8891907 297.7124023,366.4941406 Z M299.2563477,366.5688477 C299.2563477,367.5654602 299.4877319,368.365448 299.9494629,368.9682922 C300.4117432,369.5716553 301.0301514,369.8730774 301.8046875,369.8725586 C302.5849609,369.8730774 303.2049561,369.5675049 303.6640625,368.9558411 C304.1237183,368.344696 304.3530273,367.4881592 304.3530273,366.3862305 C304.3530273,365.4015503 304.1195679,364.6036377 303.6516113,363.9919739 C303.1842041,363.3808289 302.5631714,363.0747375 301.7880859,363.0742188 C301.0301514,363.0747375 300.418457,363.3766785 299.9536133,363.9795227 C299.4887695,364.5828857 299.2563477,365.446167 299.2563477,366.5688477 Z M312.4462891,363.3564453 C312.2138672,363.3180542 311.9622803,363.2988586 311.690918,363.2983398 C310.68396,363.2988586 310.0006714,363.7279053 309.640625,364.5849609 L309.640625,370.9599609 L308.1049805,370.9599609 L308.1049805,361.9785156 L309.5991211,361.9785156 L309.6240234,363.0161133 C310.1278076,362.2140503 310.8416748,361.8130188 311.765625,361.8125 C312.0644531,361.8130188 312.291687,361.8519287 312.4462891,361.9287109 Z" style="fill:rgb(255,255,255);stroke:none" clip-path="url(#clip27)" />
<clipPath id="clip28"><path d="M78,97 L163,97 L163,160 L78,160 L78,97 Z" /></clipPath>
<path d="M119.6338425,156.2455444 L119.6407776,101.9999542" style="fill:none;stroke:rgb(55,96,146);stroke-width:3" clip-path="url(#clip28)" />
<clipPath id="clip29"><path d="M78,97 L163,97 L163,160 L78,160 L78,97 Z" /></clipPath>
<path d="M114.6349487,147.5846558 L119.6338425,156.2455444 L124.6349487,147.5859375 Z" style="fill:rgb(55,96,146);stroke:none" clip-path="url(#clip29)" />
<clipPath id="clip30"><path d="M78,97 L163,97 L163,160 L78,160 L78,97 Z" /></clipPath>
<path d="M114.6349487,147.5846558 L119.6338425,156.2455444 L124.6349487,147.5859375 Z" style="fill:none;stroke:rgb(55,96,146);stroke-width:3" clip-path="url(#clip30)" />
<clipPath id="clip31"><path d="M190,203 L275,203 L275,223 L190,223 L190,203 Z" /></clipPath>
<path d="M205,213 L260,213" style="fill:none;stroke:rgb(89,89,89);stroke-width:3" clip-path="url(#clip31)" />
<clipPath id="clip32"><path d="M252,231 L337,231 L337,350 L252,350 L252,231 Z" /></clipPath>
<path d="M295,235 L294.5610352,346" style="fill:none;stroke:rgb(255,3,3);stroke-width:3" clip-path="url(#clip32)" />
<clipPath id="clip33"><path d="M252,231 L337,231 L337,350 L252,350 L252,231 Z" /></clipPath>
<path d="M289.5953369,337.3200378 L294.5610352,346 L299.5952759,337.3595886 Z" style="fill:rgb(255,3,3);stroke:none" clip-path="url(#clip33)" />
<clipPath id="clip34"><path d="M252,231 L337,231 L337,350 L252,350 L252,231 Z" /></clipPath>
<path d="M289.5953369,337.3200378 L294.5610352,346 L299.5952759,337.3595886 Z" style="fill:none;stroke:rgb(255,3,3);stroke-width:3" clip-path="url(#clip34)" />
<clipPath id="clip35"><path d="M27,324 L112,324 L112,353 L27,353 L27,324 Z" /></clipPath>
<path d="M69,328 L68.6396408,349" style="fill:none;stroke:rgb(3,128,3);stroke-width:3" clip-path="url(#clip35)" />
<clipPath id="clip36"><path d="M27,324 L112,324 L112,353 L27,353 L27,324 Z" /></clipPath>
<path d="M63.7889633,340.2552185 L68.6396408,349 L73.7874908,340.4268188 Z" style="fill:rgb(3,128,3);stroke:none" clip-path="url(#clip36)" />
<clipPath id="clip37"><path d="M27,324 L112,324 L112,353 L27,353 L27,324 Z" /></clipPath>
<path d="M63.7889633,340.2552185 L68.6396408,349 L73.7874908,340.4268188 Z" style="fill:none;stroke:rgb(3,128,3);stroke-width:3" clip-path="url(#clip37)" />
<clipPath id="clip38"><path d="M131,324 L216,324 L216,353 L131,353 L131,324 Z" /></clipPath>
<path d="M174,328 L174,349" style="fill:none;stroke:rgb(3,128,3);stroke-width:3" clip-path="url(#clip38)" />
<clipPath id="clip39"><path d="M131,324 L216,324 L216,353 L131,353 L131,324 Z" /></clipPath>
<path d="M169,340.3397522 L174,349 L179,340.3397522 Z" style="fill:rgb(3,128,3);stroke:none" clip-path="url(#clip39)" />
<clipPath id="clip40"><path d="M131,324 L216,324 L216,353 L131,353 L131,324 Z" /></clipPath>
<path d="M169,340.3397522 L174,349 L179,340.3397522 Z" style="fill:none;stroke:rgb(3,128,3);stroke-width:3" clip-path="url(#clip40)" />
</svg>
